<?xml version="1.0" encoding="UTF-8"?>
<svg version="1.1" viewBox="0 0 1024 1024" width="1280" height="1280" xmlns="http://www.w3.org/2000/svg">
<path transform="translate(429)" d="m0 0 4 2 16 13 13 10 16 13 14 11 16 13 13 10 16 12 17 11 18 10 23 11 25 9 21 6 117 26 26 6 3 3 20 100 21 104 21 106 5 30 3 34 1 33 20 7 25 12 18 11 17 13 13 12 15 15 13 17 10 15 9 16 10 24 6 19 5 23 2 16 1 16v16l-3 24-5 24-5 17-8 19-8 16-10 17-12 16-9 10-7 8-7 7-11 9-10 8-15 10-22 12-25 10-21 6-29 6h-47l-37-8-27-9-23-11-21-13-14-11-12-11-10-9-4-5-5 1-17 13-18 13-18 12-21 12-23 10-22 7-26 6-17 3h-47l-35-7-21-6-21-8-16-8-16-9-19-13-19-14-18-13-19-14-18-13-19-14-16-12-14-11-10-9-11-9-20-20-7-8-12-14-15-20-16-24-12-21-8-15-13-30-9-25-8-28-6-28-5-39-1-18v-30l2-27 4-30 64-320 3-4 143-32 24-7 27-10 19-9 24-14 20-14 15-12 14-11 16-13 14-11 25-20z" fill="#010101"/>
<path transform="translate(771,597)" d="m0 0h39l24 4 19 5 20 8 16 8 14 9 16 12 15 14 10 11 9 12 9 14 9 17 8 21 6 23 3 20 1 12v13l-2 22-4 20-5 16-6 16-12 23-12 17-11 13-5 6h-2v2l-8 7-15 12-14 9-21 11-25 9-21 5-20 3h-30l-26-4-24-7-15-6-16-8-13-8-16-12-10-8v-2l-4-2-7-8-11-13-12-18-12-23-6-17-4-13-4-20-2-19v-19l3-26 5-20 7-20 10-21 12-19 11-14 21-21 20-15 18-10 17-8 21-7 25-5z" fill="#EB7484"/>
<path transform="translate(411,140)" d="m0 0h2v241l-1 1-101 1-28 1-16 4-11 6-10 8-9 12-5 11-3 13-13 121-11 105-5 50 2 15 5 14 7 10 6 7 13 9 11 5 9 2 149 1 11 1v146l-10-1-21-5-15-6-17-9-17-12-34-25-19-14-14-10-18-13-19-14-16-13-10-9-15-14-7-8-11-13-14-19-14-23-12-23-11-27-8-26-6-28-3-22-1-12v-39l4-33 20-101 22-109 9-45 2-5 12-3 67-15 26-7 24-8 29-12 24-12 27-16 20-14 13-10 10-8z" fill="#C1C7CD"/>
<path transform="translate(284,416)" d="m0 0h46l1 1 1 76 4 18 6 15 6 10 7 9 9 10 14 10 16 8 13 4 12 2h22l15-3 16-6 14-8 11-9 8-8 9-13 7-14 5-17 2-17 1-68h46l9 4 8 7 5 8 2 10 14 131 6 58v8l-10 12-13 19-10 18-9 20-9 28-2 5h-310l-9-4-8-7-5-8-1-4v-19l7-64 12-113 8-76 2-12 5-10 8-7z" fill="#CE9F6D"/>
<path transform="translate(429,42)" d="m0 0 5 3 12 10 12 9 17 14 14 11 15 12 18 13 25 15 23 12 29 12 26 8 33 8 73 16 26 6 3 9 59 295 4 33 1 17v20l-3 1-29-3-3-41-5-33-20-100-24-119-10-50-9-3-90-20-30-8-25-9-23-10-27-14-19-12-13-9-12-9-14-11-16-13-17-13-4-4-4 2-14 11-16 13-30 23-13 9-16 10-16 9-15 8-26 11-33 11-37 9-81 18-3 12-22 111-30 149-4 25-2 22v44l3 28 5 27 7 26 7 20 9 21 11 23 13 22 12 17 10 13 12 14 11 12 13 13 8 7 16 13 38 28 18 13 38 28 18 13 15 10 18 10 20 8 17 5 15 3 9 1h33l21-3 23-6 21-9 15-8 12-8 18-13 16-12 10-7 3 1 10 19 4 6v3l-19 14-18 13-21 14-23 12-19 7-21 6-25 4-10 1h-24l-19-2-25-5-27-9-19-9-15-9-16-11-18-13-57-42-14-10-19-14-16-13-10-9-8-7-21-21-9-11-11-13-14-20-13-21-13-24-12-27-8-22-9-32-6-33-3-28-1-19v-16l2-32 5-33 48-240 11-54 9-3 90-20 38-9 30-10 23-10 20-10 20-12 17-12 13-10 14-11 16-13 14-11 16-13z" fill="#C1C7CC"/>
<path transform="translate(446,140)" d="m0 0 5 2 8 7 16 12 24 16 19 11 21 11 28 12 36 12 32 8 64 14 3 1 5 23 20 100 26 129 4 27 2 24v16l-9 3-24 6-18 6-18 8-15 8-17 11-7 5h-2l-17-163-3-19-5-13-7-11-9-9-13-8-12-4-6-1-128-1-3-2z" fill="#C1C7CD"/>
<path transform="translate(365,416)" d="m0 0h130v74l-4 16-6 11-8 10-9 8-15 8-15 4h-17l-15-4-13-7-10-8-9-11-7-15-2-8-1-9v-63z" fill="#CE9F6D"/>
<path transform="translate(454,777)" d="m0 0h107l1 1v23l2 23 5 27 2 7-10 8-11 8-19 14-20 14-16 9-18 7-25 6h-6v-144l1-2z" fill="#C1C7CC"/>
<path transform="translate(910,684)" d="m0 0 5 2 7 8 12 11-2 5-12 11-8 8-6 7-157 157h-2l-2 4-9 8-7 8-4 2-76-76 1-4 8-7 12-12 5 1 7 8 41 41 4 1z" fill="#010101"/>
</svg>
